# Generated by Steam Audio
mtllib Level1.mtl
v 0.413730 0.515000 -3.419362
v -0.586270 0.515000 -3.419362
v 0.413730 1.515000 -3.419362
v -0.586270 1.515000 -3.419362
v 0.413730 1.515000 -3.388638
v -0.586270 1.515000 -3.388638
v 0.413730 0.515000 -3.388638
v -0.586270 0.515000 -3.388638
v 0.413730 1.515000 -3.419362
v -0.586270 1.515000 -3.419362
v 0.413730 1.515000 -3.388638
v -0.586270 1.515000 -3.388638
v 0.413730 0.515000 -3.388638
v 0.413730 0.515000 -3.419362
v -0.586270 0.515000 -3.419362
v -0.586270 0.515000 -3.388638
v -0.586270 0.515000 -3.419362
v -0.586270 1.515000 -3.419362
v -0.586270 1.515000 -3.388638
v -0.586270 0.515000 -3.388638
v 0.413730 0.515000 -3.388638
v 0.413730 1.515000 -3.388638
v 0.413730 1.515000 -3.419362
v 0.413730 0.515000 -3.419362
v 0.930380 -0.913193 0.461000
v -1.102920 -0.913193 0.461000
v 0.930380 2.053193 0.461000
v -1.102920 2.053193 0.461000
v 0.930380 2.053193 0.561000
v -1.102920 2.053193 0.561000
v 0.930380 -0.913193 0.561000
v -1.102920 -0.913193 0.561000
v 0.930380 2.053193 0.461000
v -1.102920 2.053193 0.461000
v 0.930380 2.053193 0.561000
v -1.102920 2.053193 0.561000
v 0.930380 -0.913193 0.561000
v 0.930380 -0.913193 0.461000
v -1.102920 -0.913193 0.461000
v -1.102920 -0.913193 0.561000
v -1.102920 -0.913193 0.461000
v -1.102920 2.053193 0.461000
v -1.102920 2.053193 0.561000
v -1.102920 -0.913193 0.561000
v 0.930380 -0.913193 0.561000
v 0.930380 2.053193 0.561000
v 0.930380 2.053193 0.461000
v 0.930380 -0.913193 0.461000
v 0.930380 -0.913193 -3.509000
v -1.102920 -0.913193 -3.509000
v 0.930380 2.053193 -3.509000
v -1.102920 2.053193 -3.509000
v 0.930380 2.053193 -3.409000
v -1.102920 2.053193 -3.409000
v 0.930380 -0.913193 -3.409000
v -1.102920 -0.913193 -3.409000
v 0.930380 2.053193 -3.509000
v -1.102920 2.053193 -3.509000
v 0.930380 2.053193 -3.409000
v -1.102920 2.053193 -3.409000
v 0.930380 -0.913193 -3.409000
v 0.930380 -0.913193 -3.509000
v -1.102920 -0.913193 -3.509000
v -1.102920 -0.913193 -3.409000
v -1.102920 -0.913193 -3.509000
v -1.102920 2.053193 -3.509000
v -1.102920 2.053193 -3.409000
v -1.102920 -0.913193 -3.409000
v 0.930380 -0.913193 -3.409000
v 0.930380 2.053193 -3.409000
v 0.930380 2.053193 -3.509000
v 0.930380 -0.913193 -3.509000
v -1.046271 -0.913193 0.565862
v -1.046269 -0.913193 -3.483862
v -1.046271 2.053193 0.565862
v -1.046269 2.053193 -3.483862
v -1.146271 2.053193 0.565862
v -1.146269 2.053193 -3.483862
v -1.146271 -0.913193 0.565862
v -1.146269 -0.913193 -3.483862
v -1.046271 2.053193 0.565862
v -1.046269 2.053193 -3.483862
v -1.146271 2.053193 0.565862
v -1.146269 2.053193 -3.483862
v -1.146271 -0.913193 0.565862
v -1.046271 -0.913193 0.565862
v -1.046269 -0.913193 -3.483862
v -1.146269 -0.913193 -3.483862
v -1.046269 -0.913193 -3.483862
v -1.046269 2.053193 -3.483862
v -1.146269 2.053193 -3.483862
v -1.146269 -0.913193 -3.483862
v -1.146271 -0.913193 0.565862
v -1.146271 2.053193 0.565862
v -1.046271 2.053193 0.565862
v -1.046271 -0.913193 0.565862
v 0.963729 -0.913193 0.565862
v 0.963731 -0.913193 -3.483862
v 0.963729 2.053193 0.565862
v 0.963731 2.053193 -3.483862
v 0.863729 2.053193 0.565862
v 0.863731 2.053193 -3.483862
v 0.863729 -0.913193 0.565862
v 0.863731 -0.913193 -3.483862
v 0.963729 2.053193 0.565862
v 0.963731 2.053193 -3.483862
v 0.863729 2.053193 0.565862
v 0.863731 2.053193 -3.483862
v 0.863729 -0.913193 0.565862
v 0.963729 -0.913193 0.565862
v 0.963731 -0.913193 -3.483862
v 0.863731 -0.913193 -3.483862
v 0.963731 -0.913193 -3.483862
v 0.963731 2.053193 -3.483862
v 0.863731 2.053193 -3.483862
v 0.863731 -0.913193 -3.483862
v 0.863729 -0.913193 0.565862
v 0.863729 2.053193 0.565862
v 0.963729 2.053193 0.565862
v 0.963729 -0.913193 0.565862
usemtl material_0
f 1 3 4
f 1 4 2
f 9 5 6
f 9 6 10
f 11 7 8
f 11 8 12
f 13 14 15
f 13 15 16
f 17 18 19
f 17 19 20
f 21 22 23
f 21 23 24
usemtl material_1
f 25 27 28
f 25 28 26
f 33 29 30
f 33 30 34
f 35 31 32
f 35 32 36
f 37 38 39
f 37 39 40
f 41 42 43
f 41 43 44
f 45 46 47
f 45 47 48
f 49 51 52
f 49 52 50
f 57 53 54
f 57 54 58
f 59 55 56
f 59 56 60
f 61 62 63
f 61 63 64
f 65 66 67
f 65 67 68
f 69 70 71
f 69 71 72
f 73 75 76
f 73 76 74
f 81 77 78
f 81 78 82
f 83 79 80
f 83 80 84
f 85 86 87
f 85 87 88
f 89 90 91
f 89 91 92
f 93 94 95
f 93 95 96
f 97 99 100
f 97 100 98
f 105 101 102
f 105 102 106
f 107 103 104
f 107 104 108
f 109 110 111
f 109 111 112
f 113 114 115
f 113 115 116
f 117 118 119
f 117 119 120
